<mxfile host="app.diagrams.net" modified="2023-09-30T07:35:34.405Z" agent="Mozilla/5.0 (X11; Linux x86_64; rv:109.0) Gecko/20100101 Firefox/117.0" etag="4X8LszxHuWJ4_iaTZG9n" version="21.7.5" type="github">
  <diagram name="Page-1" id="QD1Ek5ZWclvtJkzn_BQ4">
    <mxGraphModel dx="783" dy="884" grid="1" gridSize="10" guides="1" tooltips="1" connect="1" arrows="1" fold="1" page="1" pageScale="1" pageWidth="850" pageHeight="1100" math="0" shadow="0">
      <root>
        <mxCell id="0" />
        <mxCell id="1" parent="0" />
        <mxCell id="p-Qw9N_aaY-XMVsvxG29-16" value="" style="edgeStyle=orthogonalEdgeStyle;rounded=0;orthogonalLoop=1;jettySize=auto;html=1;" edge="1" parent="1" source="p-Qw9N_aaY-XMVsvxG29-1" target="p-Qw9N_aaY-XMVsvxG29-15">
          <mxGeometry relative="1" as="geometry" />
        </mxCell>
        <mxCell id="p-Qw9N_aaY-XMVsvxG29-1" value="START" style="rounded=1;whiteSpace=wrap;html=1;" vertex="1" parent="1">
          <mxGeometry x="365" y="40" width="120" height="60" as="geometry" />
        </mxCell>
        <mxCell id="p-Qw9N_aaY-XMVsvxG29-5" value="" style="edgeStyle=orthogonalEdgeStyle;rounded=0;orthogonalLoop=1;jettySize=auto;html=1;" edge="1" parent="1" source="p-Qw9N_aaY-XMVsvxG29-2" target="p-Qw9N_aaY-XMVsvxG29-4">
          <mxGeometry relative="1" as="geometry" />
        </mxCell>
        <mxCell id="p-Qw9N_aaY-XMVsvxG29-2" value="Ask for name imput" style="rounded=1;whiteSpace=wrap;html=1;" vertex="1" parent="1">
          <mxGeometry x="365" y="210" width="120" height="60" as="geometry" />
        </mxCell>
        <mxCell id="p-Qw9N_aaY-XMVsvxG29-22" style="edgeStyle=orthogonalEdgeStyle;rounded=0;orthogonalLoop=1;jettySize=auto;html=1;entryX=0.5;entryY=0;entryDx=0;entryDy=0;" edge="1" parent="1" source="p-Qw9N_aaY-XMVsvxG29-4" target="p-Qw9N_aaY-XMVsvxG29-21">
          <mxGeometry relative="1" as="geometry" />
        </mxCell>
        <mxCell id="p-Qw9N_aaY-XMVsvxG29-4" value="Ask for Bid Price" style="rounded=1;whiteSpace=wrap;html=1;" vertex="1" parent="1">
          <mxGeometry x="365" y="290" width="120" height="60" as="geometry" />
        </mxCell>
        <mxCell id="p-Qw9N_aaY-XMVsvxG29-11" style="edgeStyle=orthogonalEdgeStyle;rounded=0;orthogonalLoop=1;jettySize=auto;html=1;entryX=0.442;entryY=-0.017;entryDx=0;entryDy=0;entryPerimeter=0;" edge="1" parent="1" source="p-Qw9N_aaY-XMVsvxG29-6" target="p-Qw9N_aaY-XMVsvxG29-10">
          <mxGeometry relative="1" as="geometry">
            <mxPoint x="520" y="510" as="targetPoint" />
            <Array as="points">
              <mxPoint x="518" y="510" />
            </Array>
          </mxGeometry>
        </mxCell>
        <mxCell id="p-Qw9N_aaY-XMVsvxG29-27" style="edgeStyle=orthogonalEdgeStyle;rounded=0;orthogonalLoop=1;jettySize=auto;html=1;entryX=0.5;entryY=0;entryDx=0;entryDy=0;" edge="1" parent="1" source="p-Qw9N_aaY-XMVsvxG29-6" target="p-Qw9N_aaY-XMVsvxG29-24">
          <mxGeometry relative="1" as="geometry" />
        </mxCell>
        <mxCell id="p-Qw9N_aaY-XMVsvxG29-6" value="Another bidder ?" style="rhombus;whiteSpace=wrap;html=1;" vertex="1" parent="1">
          <mxGeometry x="385" y="470" width="80" height="80" as="geometry" />
        </mxCell>
        <mxCell id="p-Qw9N_aaY-XMVsvxG29-14" value="" style="edgeStyle=orthogonalEdgeStyle;rounded=0;orthogonalLoop=1;jettySize=auto;html=1;" edge="1" parent="1" source="p-Qw9N_aaY-XMVsvxG29-10" target="p-Qw9N_aaY-XMVsvxG29-13">
          <mxGeometry relative="1" as="geometry" />
        </mxCell>
        <mxCell id="p-Qw9N_aaY-XMVsvxG29-10" value="Display highest bidding with name of the bidder" style="rounded=1;whiteSpace=wrap;html=1;" vertex="1" parent="1">
          <mxGeometry x="465" y="570" width="120" height="60" as="geometry" />
        </mxCell>
        <mxCell id="p-Qw9N_aaY-XMVsvxG29-12" value="No" style="text;html=1;strokeColor=none;fillColor=none;align=center;verticalAlign=middle;whiteSpace=wrap;rounded=0;" vertex="1" parent="1">
          <mxGeometry x="465" y="470" width="60" height="30" as="geometry" />
        </mxCell>
        <mxCell id="p-Qw9N_aaY-XMVsvxG29-13" value="END" style="rounded=1;whiteSpace=wrap;html=1;" vertex="1" parent="1">
          <mxGeometry x="465" y="670" width="120" height="60" as="geometry" />
        </mxCell>
        <mxCell id="p-Qw9N_aaY-XMVsvxG29-19" style="edgeStyle=orthogonalEdgeStyle;rounded=0;orthogonalLoop=1;jettySize=auto;html=1;entryX=0.5;entryY=0;entryDx=0;entryDy=0;" edge="1" parent="1" source="p-Qw9N_aaY-XMVsvxG29-15" target="p-Qw9N_aaY-XMVsvxG29-2">
          <mxGeometry relative="1" as="geometry" />
        </mxCell>
        <mxCell id="p-Qw9N_aaY-XMVsvxG29-15" value="Show logo from file" style="rounded=1;whiteSpace=wrap;html=1;" vertex="1" parent="1">
          <mxGeometry x="365" y="120" width="120" height="60" as="geometry" />
        </mxCell>
        <mxCell id="p-Qw9N_aaY-XMVsvxG29-23" style="edgeStyle=orthogonalEdgeStyle;rounded=0;orthogonalLoop=1;jettySize=auto;html=1;" edge="1" parent="1" source="p-Qw9N_aaY-XMVsvxG29-21" target="p-Qw9N_aaY-XMVsvxG29-6">
          <mxGeometry relative="1" as="geometry" />
        </mxCell>
        <mxCell id="p-Qw9N_aaY-XMVsvxG29-21" value="Add Name and Bid into a dictionary as key and value" style="rounded=1;whiteSpace=wrap;html=1;" vertex="1" parent="1">
          <mxGeometry x="365" y="380" width="120" height="60" as="geometry" />
        </mxCell>
        <mxCell id="p-Qw9N_aaY-XMVsvxG29-28" style="edgeStyle=orthogonalEdgeStyle;rounded=0;orthogonalLoop=1;jettySize=auto;html=1;entryX=0;entryY=0.5;entryDx=0;entryDy=0;exitX=0;exitY=0.5;exitDx=0;exitDy=0;" edge="1" parent="1" source="p-Qw9N_aaY-XMVsvxG29-24" target="p-Qw9N_aaY-XMVsvxG29-2">
          <mxGeometry relative="1" as="geometry">
            <mxPoint x="180" y="230" as="targetPoint" />
            <mxPoint x="165" y="590" as="sourcePoint" />
          </mxGeometry>
        </mxCell>
        <mxCell id="p-Qw9N_aaY-XMVsvxG29-24" value="Clear the screen" style="rounded=1;whiteSpace=wrap;html=1;" vertex="1" parent="1">
          <mxGeometry x="230" y="570" width="120" height="60" as="geometry" />
        </mxCell>
        <mxCell id="p-Qw9N_aaY-XMVsvxG29-26" value="Yes" style="text;html=1;strokeColor=none;fillColor=none;align=center;verticalAlign=middle;whiteSpace=wrap;rounded=0;" vertex="1" parent="1">
          <mxGeometry x="340" y="470" width="60" height="30" as="geometry" />
        </mxCell>
      </root>
    </mxGraphModel>
  </diagram>
</mxfile>
